<svg xmlns="http://www.w3.org/2000/svg" width="149.422" height="58.297" viewBox="0 0 149.422 58.297">
  <g id="Group_105" data-name="Group 105" transform="translate(3596.608 812.797)">
    <g id="Group_2" data-name="Group 2" transform="translate(-3574.909 -760.629)">
      <path id="Path_1" data-name="Path 1" d="M-3409.7-355.621h-.56v-3.98h-.6v-.5h.573v-.123a1.4,1.4,0,0,1,.363-1.06,1.565,1.565,0,0,1,1.11-.344h.054v.522a1.1,1.1,0,0,0-.735.206.886.886,0,0,0-.215.676v.123h.95v.5h-.942Z" transform="translate(3410.859 361.623)"/>
      <path id="Path_2" data-name="Path 2" d="M-3315.94-348.42h.572v2.37a2.143,2.143,0,0,0,.3,1.294,1.173,1.173,0,0,0,.979.38,1.43,1.43,0,0,0,.68-.157,1.19,1.19,0,0,0,.471-.453,1.232,1.232,0,0,0,.147-.411,5.156,5.156,0,0,0,.045-.825v-2.2h.572v4.475h-.572v-.493a1.58,1.58,0,0,1-.585.463,1.9,1.9,0,0,1-.778.146,1.7,1.7,0,0,1-1.4-.524,2.753,2.753,0,0,1-.429-1.736Z" transform="translate(3326.915 349.947)"/>
      <path id="Path_3" data-name="Path 3" d="M-3202.887-344.428h-.586V-348.9h.545v.519a1.439,1.439,0,0,1,.462-.437,1.26,1.26,0,0,1,.585-.145l0,.621a1.122,1.122,0,0,0-.774.323,1.378,1.378,0,0,0-.234.894Z" transform="translate(3227.452 350.43)"/>
      <path id="Path_4" data-name="Path 4" d="M-3113.326-349.1h.561v.508a1.621,1.621,0,0,1,.612-.45,2,2,0,0,1,.795-.146,2.023,2.023,0,0,1,.875.183,1.466,1.466,0,0,1,.608.525,1.638,1.638,0,0,1,.221.563,4.978,4.978,0,0,1,.067.953v2.34h-.572v-2.509a1.767,1.767,0,0,0-.3-1.15,1.2,1.2,0,0,0-.967-.359,1.414,1.414,0,0,0-.682.157,1.161,1.161,0,0,0-.466.45,1.3,1.3,0,0,0-.147.419,5.277,5.277,0,0,0-.042.816v2.177h-.561Z" transform="translate(3147.728 350.628)"/>
      <path id="Path_5" data-name="Path 5" d="M-3000.272-360.029h-.571v-.928h.571Zm-.571,5v-4.475h.571v4.475Z" transform="translate(3048.252 361.034)"/>
      <path id="Path_6" data-name="Path 6" d="M-2918.877-355.032v-3.9h-.851v-.571h.851v-1.45h.573v1.45h.851v.571h-.851v3.9Z" transform="translate(2976.516 361.034)"/>
      <path id="Path_7" data-name="Path 7" d="M-2824.088-348.42h.572v2.37a2.14,2.14,0,0,0,.3,1.294,1.171,1.171,0,0,0,.979.38,1.428,1.428,0,0,0,.68-.157,1.2,1.2,0,0,0,.473-.453,1.282,1.282,0,0,0,.146-.411,5.148,5.148,0,0,0,.045-.825v-2.2h.572v4.475h-.572v-.493a1.589,1.589,0,0,1-.584.463,1.9,1.9,0,0,1-.78.146,1.7,1.7,0,0,1-1.4-.524,2.752,2.752,0,0,1-.429-1.736Z" transform="translate(2891.934 349.947)"/>
      <path id="Path_8" data-name="Path 8" d="M-2711.019-344.428h-.584V-348.9h.543v.519a1.439,1.439,0,0,1,.461-.437,1.269,1.269,0,0,1,.585-.145l0,.621a1.124,1.124,0,0,0-.774.323,1.379,1.379,0,0,0-.234.894Z" transform="translate(2792.455 350.43)"/>
      <path id="Path_9" data-name="Path 9" d="M-2618.908-346.981h-4.042a1.728,1.728,0,0,0,.529,1.188,1.657,1.657,0,0,0,1.19.453,1.64,1.64,0,0,0,.91-.263,1.723,1.723,0,0,0,.625-.73h.648a2.557,2.557,0,0,1-.87,1.141,2.18,2.18,0,0,1-1.3.4,2.223,2.223,0,0,1-1.655-.7,2.319,2.319,0,0,1-.677-1.677,2.3,2.3,0,0,1,.661-1.689,2.287,2.287,0,0,1,1.695-.669,2.138,2.138,0,0,1,1.648.695,2.567,2.567,0,0,1,.638,1.807Zm-.635-.5a2,2,0,0,0-.6-1.124,1.68,1.68,0,0,0-1.136-.378,1.588,1.588,0,0,0-1.1.407,1.746,1.746,0,0,0-.554,1.095Z" transform="translate(2714.583 350.923)"/>
    </g>
    <line id="Line_1" data-name="Line 1" x2="137.806" transform="translate(-3595.668 -761.934)" fill="none" stroke="#000" stroke-width="2"/>
    <g id="Group_3" data-name="Group 3" transform="translate(-3596.358 -798.551)">
      <path id="Path_10" data-name="Path 10" d="M-3581.274-646.141c.053-.98.092-1.522.119-1.63a1.086,1.086,0,0,1,1.112-.955,1.073,1.073,0,0,1,1.193,1.233q0,.2-.159,2.565a1.046,1.046,0,0,1-1.193,1.057h-14.644c-.784,0-1.176-.343-1.176-1.033,0-.08.038-.411.118-.993a75,75,0,0,0,.219-7.715v-10.02a77,77,0,0,0-.594-8.748c-.054-.529-.079-.821-.079-.874q0-1.112,1.183-1.113a1.06,1.06,0,0,1,1.137,1.035,74.218,74.218,0,0,1,.627,9.633v10.15q0,4.461-.219,7.406Z" transform="translate(3596.358 676.126)" stroke="#000" stroke-width="0.5"/>
      <path id="Path_11" data-name="Path 11" d="M-3412.3-646.141h11.961c.052-.98.092-1.522.119-1.63a1.085,1.085,0,0,1,1.112-.955,1.072,1.072,0,0,1,1.192,1.233q0,.2-.158,2.565a1.045,1.045,0,0,1-1.192,1.057h-14.172c-.787,0-1.18-.343-1.18-1.033q0-.12.12-1.152a52.839,52.839,0,0,0,.219-5.608v-14.99a34.7,34.7,0,0,0-.6-5.886c-.053-.45-.08-.727-.08-.834,0-.661.381-.994,1.145-.994h13.841c.8,0,1.193.38,1.193,1.136s-.4,1.136-1.193,1.136h-12.549a43.44,43.44,0,0,1,.509,5.581v14.351Q-3412.008-649.331-3412.3-646.141Zm7.716-14.37h-5.722a1.011,1.011,0,0,1-1.153-1.135,1.012,1.012,0,0,1,1.153-1.136h5.364a40.2,40.2,0,0,0,4.49-.22c.4-.052.623-.079.676-.079q1.112,0,1.113,1.159a1.049,1.049,0,0,1-1.034,1.119A35.689,35.689,0,0,1-3404.585-660.512Z" transform="translate(3435.93 676.126)" stroke="#000" stroke-width="0.5"/>
      <path id="Path_12" data-name="Path 12" d="M-3212.215-667.256q0-2.143.22-5.083l-7.708.2a1.009,1.009,0,0,1-1.192-1.138.993.993,0,0,1,1.112-1.134l9.018-.24c.791-.026,1.19.332,1.19,1.072q0,1.029-.148,3.152t-.146,3.191q0,1.268.146,3.749t.148,3.707a1.139,1.139,0,0,1-.916,1.229,24.017,24.017,0,0,1-5.649.634q-7.717,0-12.455-4.649t-4.733-12.357q0-6.993,4.094-10.888,4.013-3.774,11.007-3.776a24.654,24.654,0,0,1,6.515.784,1.1,1.1,0,0,1,.916,1.1c0,.817-.373,1.225-1.114,1.225-.08,0-.622-.1-1.628-.315a20.527,20.527,0,0,0-4.65-.518q-6.04,0-9.417,3.183t-3.377,9.19q0,6.764,4.039,10.722t10.8,3.957a21.508,21.508,0,0,0,4.219-.4Q-3212.215-665.07-3212.215-667.256Z" transform="translate(3275.304 689.589)" stroke="#000" stroke-width="0.5"/>
      <path id="Path_13" data-name="Path 13" d="M-2960.38-649.273q0,.913-1.231.913h-3.776a1.025,1.025,0,0,1-1.152-1.169q0-1.249,1.788-1.249c.185,0,.424.012.714.037s.491.037.6.037q-1.47-3.258-4.808-13.59-.913-2.742-2.5-8.225-.356-1.469-1.112-4.41l-2.977.516a44.337,44.337,0,0,1-2.425,8.423l-6.359,17.286c.1,0,.325-.012.656-.037s.588-.037.774-.037q1.869,0,1.869,1.249a1.043,1.043,0,0,1-1.192,1.169h-3.775q-1.192,0-1.192-.913,0-.278,7.033-19.476a44.012,44.012,0,0,0,2.423-8.628,1.144,1.144,0,0,1,.916-1.033q1.308-.315,2.622-.635a14.966,14.966,0,0,1,2.543-.4q.755,0,1.113,1.033.237.836.436,1.671.278,1.232.915,3.7.8,3.221,2.305,7.79,1.27,3.856,2.582,7.712a73.7,73.7,0,0,0,3.059,7.551A1.979,1.979,0,0,1-2960.38-649.273Zm-8.027-8.91h-10.49v-2.346h10.49Z" transform="translate(3057.002 680.616)" stroke="#000" stroke-width="0.5"/>
      <path id="Path_14" data-name="Path 14" d="M-2695.889-648.948a.948.948,0,0,1-.714.979,14.81,14.81,0,0,1-3.259.2,22.152,22.152,0,0,1-6.358-.834,13.245,13.245,0,0,1-7.867-6.557,19.889,19.889,0,0,1-2.625-10.093q0-6.754,4.055-10.532,3.973-3.653,10.766-3.655a20.878,20.878,0,0,1,4.572.4,1.122,1.122,0,0,1,.993,1.159q0,1.16-1.114,1.161c-.08,0-.331-.027-.755-.081a24.2,24.2,0,0,0-3.654-.293q-5.842,0-9.1,2.984-3.418,3.144-3.42,8.871a17.912,17.912,0,0,0,2.147,8.712,11.3,11.3,0,0,0,6.675,5.728,27.739,27.739,0,0,0,7.551.757Q-2695.89-650.045-2695.889-648.948Z" transform="translate(2818.421 680.616)" stroke="#000" stroke-width="0.5"/>
      <path id="Path_15" data-name="Path 15" d="M-2496.252-656.028q0,.874-.147,3.536l-.16,3.021a1.03,1.03,0,0,1-1.167,1.112,1.041,1.041,0,0,1-1.165-1.192q0-1.111.145-3.257t.148-3.259v-5.642l-4.371-8.345q-.518-.952-1.63-2.861l-2.662-4.132a1.1,1.1,0,0,1-.239-.675,1.078,1.078,0,0,1,.378-.795,1.212,1.212,0,0,1,.855-.357c.4,0,.846.4,1.35,1.191q1.389,2.107,3.973,6.558,4.691,8.818,4.691,9.137Zm1.086-7.441a1.255,1.255,0,0,1-.857-.338,1.051,1.051,0,0,1-.376-.814,1.04,1.04,0,0,1,.159-.6l9.536-13.589a1.2,1.2,0,0,1,.954-.636,1.3,1.3,0,0,1,.892.338,1.052,1.052,0,0,1,.379.815,1.07,1.07,0,0,1-.159.6l-9.576,13.627A1.209,1.209,0,0,1-2495.166-663.469Z" transform="translate(2633.4 680.616)" stroke="#000" stroke-width="0.5"/>
    </g>
    <g id="Group_4" data-name="Group 4" transform="translate(-3531.679 -812.797)">
      <path id="Path_16" data-name="Path 16" d="M-3021.176-808.38c-5.55,1.183-13.333,2.864-14.516,9.466-2.708-1.653-.417-6.28.316-7.256,3.649-4.855,14.21-2.952,18.617-6.627-.949,8.786-7.261,19.521-18,17.489C-3035.092-804.052-3026.8-805.586-3021.176-808.38Z" transform="translate(3036.979 812.797)" fill="#8cc33e" fill-rule="evenodd"/>
    </g>
  </g>
</svg>
