<svg xmlns="http://www.w3.org/2000/svg" width="15" height="15" viewBox="0 0 15 15">
  <path id="Icon_material-favorite-border" data-name="Icon material-favorite-border" d="M13.875,4.5A4.35,4.35,0,0,0,10.5,6.208,4.35,4.35,0,0,0,7.125,4.5,4.28,4.28,0,0,0,3,9c0,3.09,2.55,5.608,6.412,9.433L10.5,19.5l1.087-1.079C15.45,14.6,18,12.086,18,9A4.28,4.28,0,0,0,13.875,4.5Zm-3.3,12.711-.075.082-.075-.082C6.855,13.688,4.5,11.358,4.5,9A2.686,2.686,0,0,1,7.125,6.135,2.939,2.939,0,0,1,9.8,8.064h1.4a2.922,2.922,0,0,1,2.67-1.929A2.686,2.686,0,0,1,16.5,9C16.5,11.358,14.145,13.688,10.575,17.211Z" transform="translate(-3 -4.5)" fill="#fff"/>
</svg>
